HIERARCHY
ROOT Hips
{
	OFFSET 2.108877 85.843872 6.433784
	CHANNELS 6 Xposition Yposition Zposition Zrotation Yrotation Xrotation 
	JOINT Spine
	{
		OFFSET -0.000000 8.814246 -2.080107
		CHANNELS 3 Zrotation Yrotation Xrotation
		JOINT Spine1
		{
			OFFSET 0.000000 8.844141 0.000000
			CHANNELS 3 Zrotation Yrotation Xrotation
			JOINT Spine2
			{
				OFFSET 0.000000 11.682268 -0.000000
				CHANNELS 3 Zrotation Yrotation Xrotation
				JOINT Spine3
				{
					OFFSET 0.000000 11.746700 0.000000
					CHANNELS 3 Zrotation Yrotation Xrotation
					JOINT Neck
					{
						OFFSET 0.000000 17.658264 -0.000000
						CHANNELS 3 Zrotation Yrotation Xrotation
						JOINT Neck1
						{
							OFFSET 0.000000 5.101515 -0.000000
							CHANNELS 3 Zrotation Yrotation Xrotation
							JOINT Head
							{
								OFFSET -0.000000 5.101515 0.000000
								CHANNELS 3 Zrotation Yrotation Xrotation
								JOINT HeadEnd
								{
									OFFSET 0.000000 11.655085 -0.000000
									CHANNELS 3 Zrotation Yrotation Xrotation
									End Site
									{
										OFFSET 0.000000 0.000000 0.000000
									}
								}
							}
						}
					}
					JOINT RightShoulder
					{
						OFFSET -2.625389 11.175210 -0.000000
						CHANNELS 3 Zrotation Yrotation Xrotation
						JOINT RightArm
						{
							OFFSET -0.000000 10.434715 0.000000
							CHANNELS 3 Zrotation Yrotation Xrotation
							JOINT RightForeArm
							{
								OFFSET -0.000000 29.628420 -0.000000
								CHANNELS 3 Zrotation Yrotation Xrotation
								JOINT RightHand
								{
									OFFSET -0.000000 22.857611 0.000000
									CHANNELS 3 Zrotation Yrotation Xrotation
									JOINT RightHandThumb1
									{
										OFFSET -2.867323 3.959563 2.944291
										CHANNELS 3 Zrotation Yrotation Xrotation
										JOINT RightHandThumb2
										{
											OFFSET -0.000000 3.350399 0.000000
											CHANNELS 3 Zrotation Yrotation Xrotation
											JOINT RightHandThumb3
											{
												OFFSET -0.000000 3.756509 0.000000
												CHANNELS 3 Zrotation Yrotation Xrotation
												JOINT RightHandThumb4
												{
													OFFSET 0.000000 3.147345 0.000000
													CHANNELS 3 Zrotation Yrotation Xrotation
													End Site
													{
														OFFSET 0.000000 0.000000 0.000000
													}
												}
											}
										}
									}
									JOINT RightHandIndex1
									{
										OFFSET -0.086752 10.030893 2.345280
										CHANNELS 3 Zrotation Yrotation Xrotation
										JOINT RightHandIndex2
										{
											OFFSET -0.000000 4.061090 0.000000
											CHANNELS 3 Zrotation Yrotation Xrotation
											JOINT RightHandIndex3
											{
												OFFSET 0.000000 3.248873 -0.000000
												CHANNELS 3 Zrotation Yrotation Xrotation
												JOINT RightHandIndex4
												{
													OFFSET 0.000000 2.639709 -0.000000
													CHANNELS 3 Zrotation Yrotation Xrotation
													End Site
													{
														OFFSET 0.000000 0.000000 0.000000
													}
												}
											}
										}
									}
									JOINT RightHandMiddle1
									{
										OFFSET 0.104102 9.502952 0.006768
										CHANNELS 3 Zrotation Yrotation Xrotation
										JOINT RightHandMiddle2
										{
											OFFSET 0.000000 4.568727 -0.000000
											CHANNELS 3 Zrotation Yrotation Xrotation
											JOINT RightHandMiddle3
											{
												OFFSET -0.000000 3.654981 0.000000
												CHANNELS 3 Zrotation Yrotation Xrotation
												JOINT RightHandMiddle4
												{
													OFFSET -0.000000 2.741236 0.000000
													CHANNELS 3 Zrotation Yrotation Xrotation
													End Site
													{
														OFFSET 0.000000 0.000000 0.000000
													}
												}
											}
										}
									}
									JOINT RightHandRing1
									{
										OFFSET 0.086752 8.921708 -2.267442
										CHANNELS 3 Zrotation Yrotation Xrotation
										JOINT RightHandRing2
										{
											OFFSET 0.000000 4.061090 0.000000
											CHANNELS 3 Zrotation Yrotation Xrotation
											JOINT RightHandRing3
											{
												OFFSET -0.000000 3.654981 0.000000
												CHANNELS 3 Zrotation Yrotation Xrotation
												JOINT RightHandRing4
												{
													OFFSET -0.000000 2.741236 0.000000
													CHANNELS 3 Zrotation Yrotation Xrotation
													End Site
													{
														OFFSET 0.000000 0.000000 0.000000
													}
												}
											}
										}
									}
									JOINT RightHandPinky1
									{
										OFFSET -0.173504 7.976997 -4.467199
										CHANNELS 3 Zrotation Yrotation Xrotation
										JOINT RightHandPinky2
										{
											OFFSET -0.000000 3.350399 0.000000
											CHANNELS 3 Zrotation Yrotation Xrotation
											JOINT RightHandPinky3
											{
												OFFSET 0.000000 2.842763 -0.000000
												CHANNELS 3 Zrotation Yrotation Xrotation
												JOINT RightHandPinky4
												{
													OFFSET -0.000000 2.639709 0.000000
													CHANNELS 3 Zrotation Yrotation Xrotation
													End Site
													{
														OFFSET 0.000000 0.000000 0.000000
													}
												}
											}
										}
									}
									JOINT RightForeArmEnd
									{
										OFFSET 0.000000 0.000000 0.000000
										CHANNELS 3 Zrotation Yrotation Xrotation
										End Site
										{
											OFFSET 0.000000 0.000000 0.000000
										}
									}
								}
								JOINT RightArmEnd
								{
									OFFSET 0.000000 0.000000 0.000000
									CHANNELS 3 Zrotation Yrotation Xrotation
									End Site
									{
										OFFSET 0.000000 0.000000 0.000000
									}
								}
							}
						}
					}
					JOINT LeftShoulder
					{
						OFFSET 2.625389 11.175210 -0.000000
						CHANNELS 3 Zrotation Yrotation Xrotation
						JOINT LeftArm
						{
							OFFSET 0.000000 10.813635 0.000000
							CHANNELS 3 Zrotation Yrotation Xrotation
							JOINT LeftForeArm
							{
								OFFSET 0.000000 28.724781 -0.000000
								CHANNELS 3 Zrotation Yrotation Xrotation
								JOINT LeftHand
								{
									OFFSET 0.644384 25.716167 -0.328871
									CHANNELS 3 Zrotation Yrotation Xrotation
									JOINT LeftHandThumb1
									{
										OFFSET 2.867323 3.959563 2.944291
										CHANNELS 3 Zrotation Yrotation Xrotation
										JOINT LeftHandThumb2
										{
											OFFSET -0.000000 3.350399 -0.000000
											CHANNELS 3 Zrotation Yrotation Xrotation
											JOINT LeftHandThumb3
											{
												OFFSET 0.000000 3.756509 0.000000
												CHANNELS 3 Zrotation Yrotation Xrotation
												JOINT LeftHandThumb4
												{
													OFFSET -0.000000 3.100000 -0.000000
													CHANNELS 3 Zrotation Yrotation Xrotation
													End Site
													{
														OFFSET 0.000000 0.000000 0.000000
													}
												}
											}
										}
									}
									JOINT LeftHandIndex1
									{
										OFFSET 0.086752 10.030893 2.345280
										CHANNELS 3 Zrotation Yrotation Xrotation
										JOINT LeftHandIndex2
										{
											OFFSET 0.000000 4.061090 -0.000000
											CHANNELS 3 Zrotation Yrotation Xrotation
											JOINT LeftHandIndex3
											{
												OFFSET 0.000000 3.248873 0.000000
												CHANNELS 3 Zrotation Yrotation Xrotation
												JOINT LeftHandIndex4
												{
													OFFSET -0.000000 2.639709 -0.000000
													CHANNELS 3 Zrotation Yrotation Xrotation
													End Site
													{
														OFFSET 0.000000 0.000000 0.000000
													}
												}
											}
										}
									}
									JOINT LeftHandMiddle1
									{
										OFFSET -0.104102 9.502952 0.006768
										CHANNELS 3 Zrotation Yrotation Xrotation
										JOINT LeftHandMiddle2
										{
											OFFSET 0.000000 4.568727 0.000000
											CHANNELS 3 Zrotation Yrotation Xrotation
											JOINT LeftHandMiddle3
											{
												OFFSET -0.000000 3.654981 -0.000000
												CHANNELS 3 Zrotation Yrotation Xrotation
												JOINT LeftHandMiddle4
												{
													OFFSET 0.000000 2.741236 -0.000000
													CHANNELS 3 Zrotation Yrotation Xrotation
													End Site
													{
														OFFSET 0.000000 0.000000 0.000000
													}
												}
											}
										}
									}
									JOINT LeftHandRing1
									{
										OFFSET -0.086752 8.921708 -2.267442
										CHANNELS 3 Zrotation Yrotation Xrotation
										JOINT LeftHandRing2
										{
											OFFSET 0.000000 4.061090 0.000000
											CHANNELS 3 Zrotation Yrotation Xrotation
											JOINT LeftHandRing3
											{
												OFFSET -0.000000 3.654981 -0.000000
												CHANNELS 3 Zrotation Yrotation Xrotation
												JOINT LeftHandRing4
												{
													OFFSET 0.000000 2.741236 0.000000
													CHANNELS 3 Zrotation Yrotation Xrotation
													End Site
													{
														OFFSET 0.000000 0.000000 0.000000
													}
												}
											}
										}
									}
									JOINT LeftHandPinky1
									{
										OFFSET 0.173504 7.976997 -4.467199
										CHANNELS 3 Zrotation Yrotation Xrotation
										JOINT LeftHandPinky2
										{
											OFFSET 0.000000 3.350399 0.000000
											CHANNELS 3 Zrotation Yrotation Xrotation
											JOINT LeftHandPinky3
											{
												OFFSET -0.000000 2.842763 -0.000000
												CHANNELS 3 Zrotation Yrotation Xrotation
												JOINT LeftHandPinky4
												{
													OFFSET -0.000000 2.639709 0.000000
													CHANNELS 3 Zrotation Yrotation Xrotation
													End Site
													{
														OFFSET 0.000000 0.000000 0.000000
													}
												}
											}
										}
									}
									JOINT LeftForeArmEnd
									{
										OFFSET 0.000000 0.000000 0.000000
										CHANNELS 3 Zrotation Yrotation Xrotation
										End Site
										{
											OFFSET 0.000000 0.000000 0.000000
										}
									}
								}
								JOINT LeftArmEnd
								{
									OFFSET 0.000000 0.000000 0.000000
									CHANNELS 3 Zrotation Yrotation Xrotation
									End Site
									{
										OFFSET 0.000000 0.000000 0.000000
									}
								}
							}
						}
					}
				}
			}
		}
	}
	JOINT RightUpLeg
	{
		OFFSET -11.289943 -0.000000 -0.000000
		CHANNELS 3 Zrotation Yrotation Xrotation
		JOINT RightLeg
		{
			OFFSET 0.000000 -38.200325 -0.000000
			CHANNELS 3 Zrotation Yrotation Xrotation
			JOINT RightFoot
			{
				OFFSET -0.000000 -39.900856 0.000000
				CHANNELS 3 Zrotation Yrotation Xrotation
				JOINT RightToeBase
				{
					OFFSET 0.000000 -0.000000 15.261641
					CHANNELS 3 Zrotation Yrotation Xrotation
					JOINT RightToeBaseEnd
					{
						OFFSET 0.000000 -0.000000 7.370709
						CHANNELS 3 Zrotation Yrotation Xrotation
						End Site
						{
							OFFSET 0.000000 0.000000 0.000000
						}
					}
				}
				JOINT RightLegEnd
				{
					OFFSET 0.000000 0.000000 0.000000
					CHANNELS 3 Zrotation Yrotation Xrotation
					End Site
					{
						OFFSET 0.000000 0.000000 0.000000
					}
				}
			}
			JOINT RightUpLegEnd
			{
				OFFSET 0.000000 0.000000 0.000000
				CHANNELS 3 Zrotation Yrotation Xrotation
				End Site
				{
					OFFSET 0.000000 0.000000 0.000000
				}
			}
		}
	}
	JOINT LeftUpLeg
	{
		OFFSET 11.315661 0.000000 0.000000
		CHANNELS 3 Zrotation Yrotation Xrotation
		JOINT LeftLeg
		{
			OFFSET 0.000000 -38.200325 -0.000000
			CHANNELS 3 Zrotation Yrotation Xrotation
			JOINT LeftFoot
			{
				OFFSET 0.000000 -39.900856 0.000000
				CHANNELS 3 Zrotation Yrotation Xrotation
				JOINT LeftToeBase
				{
					OFFSET -0.000000 0.000000 15.261641
					CHANNELS 3 Zrotation Yrotation Xrotation
					JOINT LeftToeBaseEnd
					{
						OFFSET 0.000000 -0.000000 7.539996
						CHANNELS 3 Zrotation Yrotation Xrotation
						End Site
						{
							OFFSET 0.000000 0.000000 0.000000
						}
					}
				}
				JOINT LeftLegEnd
				{
					OFFSET 0.000000 0.000000 0.000000
					CHANNELS 3 Zrotation Yrotation Xrotation
					End Site
					{
						OFFSET 0.000000 0.000000 0.000000
					}
				}
			}
			JOINT LeftUpLegEnd
			{
				OFFSET 0.000000 0.000000 0.000000
				CHANNELS 3 Zrotation Yrotation Xrotation
				End Site
				{
					OFFSET 0.000000 0.000000 0.000000
				}
			}
		}
	}
}
MOTION
Frames: 4
Frame Time: 0.016667
2.108877 85.843872 6.433784 7.366311 1.891112 -14.319648 -4.803537 1.543781 7.611696 0.144562 0.330886 0.963599 -3.409511 3.862740 12.948984 -2.718548 0.615558 5.746804 -4.530675 -1.646691 7.289640 0.036933 -3.966857 -2.812216 2.312032 1.112559 -19.057188 0.000000 0.000000 0.000000 94.570038 -0.792322 10.394508 60.177753 -33.213970 13.691449 0.302012 10.408144 23.729389 1.702733 19.126228 -1.215023 11.236528 -1.888869 39.607235 0.000000 0.000000 -27.360001 0.000000 0.000000 -18.999998 0.000000 0.000000 0.000000 13.525223 16.811014 -8.804397 10.822264 -0.691127 -3.273861 10.821606 0.291133 -3.086099 0.000000 0.000000 0.000000 13.869543 6.914893 -8.987038 10.415632 -0.890541 -1.269413 10.414263 0.099230 -1.088632 0.000000 0.000000 0.000000 17.165953 -8.899786 -8.627101 10.997164 1.837517 1.722875 10.991510 -0.124273 1.341442 0.000000 0.000000 0.000000 19.602762 -25.706371 -9.239554 10.114452 3.579195 4.762783 10.094716 -0.358811 4.060862 0.000000 0.000000 0.000000 0.000000 0.000000 0.000000 0.000000 0.000000 0.000000 -93.094139 0.767930 13.306390 -45.864296 46.182747 10.873838 -1.476025 -11.108634 38.257915 -8.386281 -14.025478 -14.728986 -11.386312 1.899954 39.541836 0.000000 0.000000 -27.720001 0.000000 0.000000 -19.250000 0.000000 0.000000 0.000000 -19.256647 16.782726 -9.445190 -11.101971 -0.673631 3.357541 -11.101356 0.307657 3.164993 0.000000 0.000000 0.000000 -16.495266 6.889104 -10.267548 -10.617434 -0.876769 1.293747 -10.616634 0.085360 1.109465 0.000000 0.000000 0.000000 -15.013661 -8.892817 -8.919851 -11.401581 1.821848 -1.785447 -11.395777 -0.138639 -1.390154 0.000000 0.000000 0.000000 -12.415347 -25.644579 -10.163789 -10.947162 3.507108 -5.151306 -10.926703 -0.420296 -4.392265 0.000000 0.000000 0.000000 0.000000 0.000000 0.000000 0.000000 0.000000 0.000000 -25.248217 -19.126856 -3.156702 -0.620571 -1.011655 31.559397 11.535252 -20.996735 18.262280 -2.952342 0.543449 -17.867565 0.000000 0.000000 0.000000 0.000000 0.000000 0.000000 0.000000 0.000000 0.000000 -9.825931 10.206704 22.125107 0.003744 0.137149 3.294587 4.704391 11.172412 13.573748 -0.658169 -0.997269 -15.441319 0.000000 0.000000 0.000000 0.000000 0.000000 0.000000 0.000000 0.000000 0.000000 
2.140167 85.838081 6.343412 8.005528 2.605039 -15.757254 -5.537773 1.473334 8.641665 -0.513409 0.417967 2.842960 -3.870265 2.718868 11.486162 -1.018852 0.025567 5.040932 -4.820031 -1.301668 7.322579 0.714678 -2.730982 -2.675308 1.210082 0.141175 -18.761454 0.000000 0.000000 0.000000 94.906982 -0.818256 10.944961 59.451527 -31.507092 14.151973 0.080707 8.091221 21.549545 1.647286 20.648209 -1.491452 10.958407 -1.849205 39.739120 -0.000049 0.000013 -26.901546 0.000021 0.000029 -18.700369 -0.000010 0.000009 -0.000006 13.997769 17.043203 -9.475537 10.804866 -0.698841 -3.099984 10.915106 0.293930 -2.910480 -0.000040 0.000009 0.000024 14.436637 6.966489 -9.558317 10.124508 -0.886246 -1.179427 10.103929 0.102569 -1.028432 0.000007 -0.000001 0.000015 17.208725 -8.983170 -8.215852 10.445044 1.873345 1.495479 10.317654 -0.096528 1.155202 0.000012 0.000174 0.000005 19.038052 -25.860378 -8.376568 9.493669 3.691819 3.787444 9.270473 -0.261614 3.235149 -0.000250 0.000005 0.000025 0.000000 0.000000 0.000000 0.000000 0.000000 0.000000 -92.786507 0.505013 13.169811 -49.861153 42.456356 8.615552 -1.246888 -10.095288 36.494720 -9.035498 -12.252710 -14.373268 -11.174262 1.845258 39.692074 0.000010 0.000002 -27.111975 0.000023 -0.000018 -18.912647 -0.000160 -0.000028 0.001985 -19.310293 17.041046 -8.975334 -11.415366 -0.631236 3.379409 -11.589024 0.338400 3.176172 0.000012 0.000462 -0.000003 -16.883129 7.018510 -9.498775 -11.121820 -0.872861 1.308374 -10.934824 0.107831 1.115796 0.000203 -0.000042 -0.000014 -15.127820 -8.981648 -8.390471 -11.395810 1.837451 -1.744630 -11.508337 -0.130784 -1.356986 -0.000951 0.000001 -0.000012 -11.940700 -25.811951 -9.852811 -10.724327 3.558851 -4.665630 -10.643458 -0.365352 -4.003401 -0.000045 -0.000006 -0.000023 0.000000 0.000000 0.000000 0.000000 0.000000 0.000000 -25.854637 -14.208767 -1.770248 -0.438654 -1.078453 28.175505 12.259731 -24.825270 18.229851 -2.911248 0.183246 -18.139040 0.000000 0.000000 0.000000 0.000000 0.000000 0.000000 0.000000 0.000000 0.000000 -9.055641 11.738718 22.654226 0.081802 0.600285 5.154162 6.311219 9.726456 11.816004 -0.504134 -1.160861 -15.549022 0.000000 0.000000 0.000000 0.000000 0.000000 0.000000 0.000000 0.000000 0.000000 
2.167046 85.848099 6.355665 7.972226 2.733969 -15.817611 -5.502614 1.450949 8.650108 -0.478256 0.403066 2.842798 -3.824289 2.791233 11.564195 -0.989919 0.032560 5.193066 -4.888219 -1.183892 7.412245 0.718302 -2.734345 -2.553236 1.233840 0.172843 -18.836012 0.000000 0.000000 0.000000 94.912292 -0.757461 11.035146 59.828690 -31.215599 13.829059 0.112477 8.078183 21.465483 1.788115 21.093061 -1.554097 10.993123 -1.857696 39.711029 -0.000021 0.000022 -27.028419 0.000005 0.000033 -18.775555 0.000008 0.000013 -0.000014 14.034869 17.016319 -9.525493 10.790470 -0.705604 -3.090647 10.894540 0.288976 -2.903743 -0.000015 0.000022 0.000009 14.448208 6.952157 -9.574684 10.079190 -0.888770 -1.175048 10.055097 0.100694 -1.024775 0.000011 -0.000026 0.000015 17.236340 -8.961929 -8.249347 10.361532 1.877207 1.486493 10.243596 -0.093941 1.147909 0.000008 0.000359 -0.000008 18.999411 -25.831038 -8.445724 9.432301 3.703632 3.774303 9.187483 -0.253985 3.223394 -0.000281 0.000016 0.000001 0.000000 0.000000 0.000000 0.000000 0.000000 0.000000 -92.696365 0.472245 13.376551 -50.109005 42.589058 8.586960 -1.245619 -10.070630 36.371704 -8.985240 -12.630342 -14.121899 -11.188155 1.847503 39.675472 0.000015 0.000008 -27.176872 0.000043 -0.000012 -18.944338 -0.000074 -0.000016 0.002016 -19.547844 17.052113 -9.013597 -11.641382 -0.636881 3.359994 -11.792295 0.332815 3.159669 0.000023 0.000460 0.000001 -17.012512 7.019989 -9.544733 -11.272033 -0.875430 1.299482 -11.092413 0.106333 1.110999 0.000099 -0.000041 -0.000023 -15.197348 -8.976604 -8.416428 -11.463803 1.838757 -1.740667 -11.593824 -0.129042 -1.352940 -0.000939 0.000005 -0.000007 -11.954201 -25.790590 -9.895461 -10.675999 3.561478 -4.663709 -10.627378 -0.364547 -4.007084 0.000134 0.000010 -0.000033 0.000000 0.000000 0.000000 0.000000 0.000000 0.000000 -25.828043 -14.359318 -1.676088 -0.429447 -1.061591 28.064123 12.188414 -25.241751 18.328659 -2.931184 0.162200 -18.125996 0.000000 0.000000 0.000000 0.000000 0.000000 0.000000 0.000000 0.000000 0.000000 -9.038340 11.784094 22.588619 0.086906 0.602661 5.205628 6.344187 9.710416 11.894518 -0.511193 -1.157318 -15.554720 0.000000 0.000000 0.000000 0.000000 0.000000 0.000000 0.000000 0.000000 0.000000 
2.198441 85.846985 6.361616 7.952133 2.815345 -15.865131 -5.461728 1.426581 8.648395 -0.457106 0.391744 2.881497 -3.768134 2.785020 11.619732 -0.963415 0.019649 5.332210 -5.030702 -1.093141 7.426124 0.730814 -2.725458 -2.524700 1.261790 0.189663 -18.905031 0.000000 0.000000 0.000000 94.897820 -0.715529 11.054899 60.248455 -30.606321 13.571729 0.107443 8.202552 21.386192 2.007355 21.337259 -1.385557 11.030974 -1.861103 39.694061 -0.000008 0.000022 -27.123341 -0.000005 0.000035 -18.824265 0.000007 0.000012 -0.000012 14.061409 17.032763 -9.613031 10.858143 -0.707189 -3.089920 10.943564 0.289325 -2.906076 -0.000007 0.000022 0.000004 14.476853 6.957566 -9.564215 10.132461 -0.889826 -1.175462 10.096379 0.101032 -1.025167 0.000009 -0.000032 0.000020 17.262587 -8.974871 -8.155644 10.380786 1.878031 1.485784 10.283456 -0.095305 1.148517 0.000010 0.000640 -0.000006 18.930557 -25.883572 -8.290154 9.462543 3.704417 3.784797 9.204315 -0.258073 3.238139 -0.000358 0.000017 -0.000015 0.000000 0.000000 0.000000 0.000000 0.000000 0.000000 -92.519730 0.447271 13.462790 -50.220768 42.577850 8.746928 -1.216645 -10.322477 36.375965 -8.814070 -13.318130 -13.862412 -11.203653 1.847811 39.661392 0.000009 0.000008 -27.232094 0.000050 -0.000012 -18.977926 0.000010 -0.000016 0.002058 -19.754276 17.060078 -8.985525 -11.848732 -0.640053 3.344971 -11.985011 0.330670 3.150840 0.000021 0.000544 0.000002 -17.141926 7.026023 -9.526416 -11.430720 -0.876905 1.293892 -11.249691 0.105963 1.108950 0.000058 -0.000041 -0.000024 -15.305882 -8.988707 -8.357568 -11.572216 1.840025 -1.738761 -11.713173 -0.128959 -1.351215 -0.000865 0.000003 -0.000006 -12.042826 -25.816446 -9.847451 -10.716617 3.563086 -4.666945 -10.692093 -0.366428 -4.012588 0.000272 0.000009 -0.000034 0.000000 0.000000 0.000000 0.000000 0.000000 0.000000 -25.799347 -14.443020 -1.633009 -0.426514 -1.060036 27.988678 12.119102 -25.484400 18.418430 -2.937561 0.151110 -18.144257 0.000000 0.000000 0.000000 0.000000 0.000000 0.000000 0.000000 0.000000 0.000000 -8.965020 11.945503 22.566153 0.088920 0.609389 5.187910 6.336524 9.765532 11.931742 -0.500840 -1.160551 -15.556320 0.000000 0.000000 0.000000 0.000000 0.000000 0.000000 0.000000 0.000000 0.000000 
